<svg width="215" height="215" viewBox="0 0 215 215" fill="none" xmlns="http://www.w3.org/2000/svg">
<g clip-path="url(#clip0_470_2643)">
<path d="M0 0H215V215H0V0Z" fill="#F7DF1E"/>
<path d="M56.5311 179.669L72.9837 169.712C76.1583 175.34 79.0456 180.102 85.9718 180.102C92.6108 180.102 96.7974 177.505 96.7974 167.403V98.7059H117.002V167.689C117.002 188.615 104.735 198.141 86.8377 198.141C70.6749 198.141 61.293 189.77 56.5303 179.668M127.976 177.504L144.427 167.98C148.758 175.052 154.386 180.247 164.344 180.247C172.716 180.247 178.054 176.061 178.054 170.288C178.054 163.361 172.57 160.907 163.333 156.868L158.283 154.701C143.706 148.497 134.037 140.703 134.037 124.251C134.037 109.096 145.582 97.5503 163.623 97.5503C176.468 97.5503 185.704 102.025 192.342 113.715L176.61 123.818C173.146 117.612 169.395 115.159 163.622 115.159C157.705 115.159 153.952 118.912 153.952 123.818C153.952 129.879 157.705 132.334 166.363 136.087L171.414 138.251C188.589 145.612 198.258 153.116 198.258 170C198.258 188.186 183.971 198.143 164.776 198.143C146.015 198.143 133.892 189.196 127.975 177.505" fill="black"/>
</g>
<defs>
<clipPath id="clip0_470_2643">
<rect width="215" height="215" fill="white"/>
</clipPath>
</defs>
</svg>
