<svg width="1405" height="582" viewBox="0 0 1405 582" fill="none" xmlns="http://www.w3.org/2000/svg">
<path d="M66.07 251.909V149.519L0 111.399V251.909C0 398.269 91.78 528.859 229.44 578.399L237.61 581.349V510.689C134.4 467.019 66.08 364.889 66.08 251.909" fill="#0091F0"/>
<path d="M243.04 0.219114C131.52 3.61911 48.58 44.1691 7.09 68.6191L74.56 107.549C117.94 87.0391 175.72 68.3791 245.03 66.2491C249.24 66.1691 253.51 66.1091 257.73 66.1091L264.86 66.1691C336.11 67.3491 395.57 86.0491 440.31 107.149L507.9 68.1191C464.87 42.9691 370.09 -3.58089 243.06 0.219114" fill="#00C9EA"/>
<path d="M414.91 156.399V228.919H294.99V430.269H221.25V228.919H100.92V156.399H414.91Z" fill="#0055F7"/>
<path d="M1058.24 228.919H861.34C852.43 228.919 847.57 230.939 844.33 234.189C840.68 237.839 838.66 242.699 838.66 248.369C838.66 254.449 841.5 259.709 845.55 262.949C848.79 265.789 852.84 266.999 861.35 266.999H981.68C1012.47 266.999 1033.13 276.719 1047.72 291.709C1062.31 306.699 1071.22 326.959 1071.22 348.429C1071.22 368.279 1063.52 387.329 1050.96 401.909C1035.97 419.329 1014.09 430.269 981.68 430.269H769.39V360.179H968.72C980.06 360.179 985.74 357.749 989.38 353.289C992.22 350.049 993.84 345.589 993.84 340.729C993.84 335.059 991.81 329.789 988.17 326.139C984.52 322.089 979.26 320.059 968.72 320.059H857.31C820.85 320.059 799.78 310.339 785.19 295.349C770.61 280.359 762.1 260.509 762.1 238.229C762.1 215.949 771.01 196.089 785.6 181.099C800.18 166.109 820.85 156.389 857.31 156.389H1058.26V228.909L1058.24 228.919Z" fill="#0055F7"/>
<path d="M1390.97 228.889H1190.52C1181.45 228.889 1176.5 230.909 1173.2 234.149C1169.49 237.789 1167.43 242.659 1167.43 248.329C1167.43 254.409 1170.32 259.669 1174.44 262.909C1177.74 265.739 1181.86 266.959 1190.53 266.959H1313.03C1344.38 266.959 1365.41 276.679 1380.26 291.659C1395.11 306.639 1404.18 326.899 1404.18 348.359C1404.18 368.209 1396.34 387.239 1383.56 401.819C1368.3 419.229 1346.03 430.169 1313.03 430.169H1096.91V360.109H1299.83C1311.38 360.109 1317.15 357.679 1320.87 353.219C1323.76 349.979 1325.41 345.529 1325.41 340.669C1325.41 334.999 1323.35 329.739 1319.64 326.089C1315.93 322.039 1310.57 320.019 1299.84 320.019H1186.42C1149.3 320.019 1127.85 310.299 1113 295.309C1098.15 280.329 1089.49 260.479 1089.49 238.209C1089.49 215.939 1098.56 196.089 1113.41 181.109C1128.26 166.129 1149.29 156.409 1186.41 156.409H1390.98V228.899L1390.97 228.889Z" fill="#0055F7"/>
<path d="M977.65 467.809V525.419H970.26V467.809H948.9V461.069H998.83V467.809H977.66H977.65Z" fill="#0055F7"/>
<path d="M1036.99 511.789H1043.86L1043.91 513.439C1043.91 518.119 1042.46 521.399 1039.57 523.269C1036.67 525.139 1031.59 526.079 1024.33 526.079C1015.88 526.079 1010.33 524.559 1007.7 521.529C1005.06 518.499 1003.74 512.129 1003.74 502.409C1003.74 493.419 1005.07 487.389 1007.73 484.309C1010.39 481.229 1015.59 479.689 1023.33 479.689C1031.78 479.689 1037.32 481.029 1039.94 483.699C1042.56 486.369 1043.88 491.999 1043.88 500.579V504.119H1010.85C1010.85 511.219 1011.63 515.749 1013.18 517.699C1014.73 519.649 1018.36 520.619 1024.05 520.619C1029.74 520.619 1032.97 520.159 1034.59 519.229C1036.21 518.299 1037.01 516.299 1037.01 513.219V511.809L1036.99 511.789ZM1036.99 498.969L1036.94 496.849C1036.94 491.979 1036.12 488.809 1034.49 487.349C1032.86 485.889 1029.33 485.159 1023.93 485.159C1018.53 485.159 1014.96 486.019 1013.34 487.729C1011.72 489.439 1010.92 493.189 1010.92 498.969H1036.99Z" fill="#0055F7"/>
<path d="M1086.01 509.149H1092.73L1092.78 511.599C1092.78 521.249 1086.35 526.069 1073.48 526.069C1065.22 526.069 1059.77 524.549 1057.11 521.499C1054.45 518.449 1053.12 512.169 1053.12 502.639C1053.12 493.709 1054.47 487.659 1057.18 484.469C1059.89 481.279 1065.03 479.679 1072.62 479.679C1080.21 479.679 1085.17 480.759 1087.89 482.909C1090.61 485.059 1091.97 489.109 1091.97 495.049H1085.25V493.869C1085.25 490.379 1084.37 488.059 1082.61 486.889C1080.85 485.729 1077.35 485.149 1072.1 485.149C1066.85 485.149 1063.79 486.249 1062.35 488.449C1060.91 490.649 1060.19 495.579 1060.19 503.249C1060.19 510.919 1061.01 515.489 1062.66 517.529C1064.31 519.569 1068.16 520.589 1074.21 520.589C1079.33 520.589 1082.58 519.919 1083.96 518.589C1085.34 517.249 1086.03 514.099 1086.03 509.139L1086.01 509.149Z" fill="#0055F7"/>
<path d="M1108.86 461.069V485.919L1109 486.009C1110.7 481.799 1115.43 479.689 1123.21 479.689C1134.73 479.689 1140.49 484.719 1140.49 494.779V525.419H1133.77V495.339C1133.77 488.549 1130.23 485.159 1123.16 485.159C1117.46 485.159 1113.65 486.159 1111.73 488.149C1109.81 490.149 1108.85 494.109 1108.85 500.049V525.409H1102.13V461.059H1108.85L1108.86 461.069Z" fill="#0055F7"/>
<path d="M1152.7 480.349H1159.18L1158.99 486.479L1159.18 486.619C1161.23 481.999 1166.32 479.689 1174.45 479.689C1181.01 479.689 1185.45 480.819 1187.77 483.079C1190.09 485.339 1191.25 489.679 1191.25 496.089V525.409H1184.53V494.959C1184.53 491.089 1183.78 488.489 1182.27 487.159C1180.76 485.819 1177.87 485.159 1173.58 485.159C1164.14 485.159 1159.42 489.539 1159.42 498.309V525.419H1152.7V480.349Z" fill="#0055F7"/>
<path d="M1222.36 479.689C1230.84 479.689 1236.35 481.139 1238.88 484.029C1241.41 486.919 1242.67 493.209 1242.67 502.889C1242.67 512.569 1241.4 518.849 1238.88 521.739C1236.35 524.629 1230.85 526.079 1222.36 526.079C1213.87 526.079 1208.42 524.629 1205.89 521.739C1203.36 518.849 1202.1 512.559 1202.1 502.889C1202.1 493.219 1203.36 486.919 1205.89 484.029C1208.42 481.139 1213.91 479.689 1222.36 479.689ZM1222.36 485.159C1216.41 485.159 1212.72 486.109 1211.29 488.009C1209.87 489.909 1209.15 494.869 1209.15 502.879C1209.15 510.889 1209.86 515.849 1211.29 517.749C1212.71 519.649 1216.4 520.599 1222.36 520.599C1228.32 520.599 1232.05 519.649 1233.47 517.749C1234.89 515.849 1235.61 510.889 1235.61 502.879C1235.61 494.869 1234.9 489.909 1233.47 488.009C1232.05 486.109 1228.34 485.159 1222.36 485.159Z" fill="#0055F7"/>
<path d="M1259.85 461.069V525.419H1253.13V461.069H1259.85Z" fill="#0055F7"/>
<path d="M1290.63 479.689C1299.11 479.689 1304.62 481.139 1307.15 484.029C1309.68 486.919 1310.94 493.209 1310.94 502.889C1310.94 512.569 1309.67 518.849 1307.15 521.739C1304.62 524.629 1299.12 526.079 1290.63 526.079C1282.14 526.079 1276.69 524.629 1274.16 521.739C1271.63 518.849 1270.37 512.559 1270.37 502.889C1270.37 493.219 1271.63 486.919 1274.16 484.029C1276.69 481.139 1282.18 479.689 1290.63 479.689ZM1290.63 485.159C1284.68 485.159 1280.99 486.109 1279.56 488.009C1278.14 489.909 1277.42 494.869 1277.42 502.879C1277.42 510.889 1278.13 515.849 1279.56 517.749C1280.98 519.649 1284.67 520.599 1290.63 520.599C1296.59 520.599 1300.32 519.649 1301.74 517.749C1303.16 515.849 1303.88 510.889 1303.88 502.879C1303.88 494.869 1303.17 489.909 1301.74 488.009C1300.32 486.109 1296.61 485.159 1290.63 485.159Z" fill="#0055F7"/>
<path d="M1359.81 480.349V528.339C1359.81 534.879 1358.37 539.369 1355.49 541.819C1352.61 544.269 1347.33 545.499 1339.65 545.499C1332.8 545.499 1328.13 544.459 1325.63 542.389C1323.13 540.319 1321.88 536.429 1321.88 530.749H1328.36C1328.36 534.619 1329.09 537.129 1330.54 538.289C1332 539.449 1335.19 540.029 1340.12 540.029C1345.05 540.029 1348.68 539.269 1350.44 537.769C1352.2 536.259 1353.08 533.309 1353.08 528.909V519.859L1352.94 519.809C1351.21 523.989 1346.22 526.079 1337.96 526.079C1331.17 526.079 1326.5 524.439 1323.94 521.149C1321.38 517.869 1320.1 511.869 1320.1 503.169C1320.1 494.469 1321.4 487.979 1324.01 484.669C1326.62 481.349 1331.46 479.689 1338.53 479.689C1346.05 479.689 1350.97 481.949 1353.27 486.479L1353.41 486.429L1353.07 480.349H1359.79H1359.81ZM1339.79 485.159C1334.51 485.159 1331.08 486.249 1329.52 488.439C1327.95 490.619 1327.17 495.409 1327.17 502.789C1327.17 510.169 1327.95 515.069 1329.52 517.289C1331.09 519.509 1334.51 520.609 1339.79 520.609C1345.07 520.609 1348.65 519.389 1350.35 516.959C1352.05 514.529 1352.89 509.459 1352.89 501.759C1352.89 494.969 1352.04 490.509 1350.35 488.369C1348.65 486.229 1345.13 485.159 1339.79 485.159Z" fill="#0055F7"/>
<path d="M1404.17 480.349L1391.16 528.009C1389.34 534.729 1387.31 539.349 1385.09 541.869C1382.87 544.389 1379.69 545.639 1375.56 545.639C1374.73 545.639 1373.66 545.529 1372.35 545.309V539.839C1373.28 540.029 1374.06 540.139 1374.7 540.169C1378.32 540.359 1381 537.479 1382.77 531.539L1384.07 527.109C1384.1 526.949 1384.25 526.389 1384.5 525.409H1381.96L1365.35 480.339H1372.5L1379.56 500.419L1383.11 510.409L1384.84 515.459L1386.62 520.459H1386.81L1388.06 515.459L1389.26 510.409L1391.85 500.419L1397.04 480.339H1404.19L1404.17 480.349Z" fill="#0055F7"/>
<path d="M746.76 418.119L647.9 200.959C632.51 166.929 606.98 150.329 568.9 150.329C530.82 150.329 504.89 166.939 489.5 200.959C467.2 250.509 444.9 300.069 422.48 349.569C401.99 394.819 384.04 439.359 344.17 471.329C324.37 487.209 302.25 500.519 278.23 510.699V581.359L286.38 578.409C363.64 550.429 431.07 492.899 471.82 421.169C473.93 417.459 487.17 387.739 489.95 387.739H631.92L605.34 327.379H515.43L557.15 229.319C560 222.849 564.45 220.809 569.31 220.809C574.58 220.809 579.44 223.239 581.87 229.319L618.8 315.269L650.72 387.729H650.74L657.19 402.399L665.34 420.949C666.56 423.779 667.76 426.619 668.57 430.269H751.21C750 426.209 748.79 422.559 746.76 418.109V418.119Z" fill="#0055F7"/>
</svg>
