<svg width="215" height="215" viewBox="0 0 215 215" fill="none" xmlns="http://www.w3.org/2000/svg">
<g clip-path="url(#clip0_470_2681)">
<path d="M0 107.5V0H215V215H0" fill="#007ACC"/>
<path d="M47.1387 107.876V116.638H75.0887V196.188H94.9224V116.638H122.872V108.038C122.872 103.2 122.872 99.2764 122.657 99.1689C122.657 99.0076 105.619 98.9539 84.9249 98.9539L47.2999 99.1151V107.93L47.1387 107.876ZM172.752 98.9001C178.235 100.19 182.427 102.663 186.19 106.586C188.179 108.736 191.135 112.499 191.35 113.466C191.35 113.789 182.051 120.078 176.407 123.571C176.192 123.733 175.332 122.819 174.472 121.421C171.677 117.444 168.829 115.724 164.367 115.401C157.917 114.971 153.617 118.358 153.617 124.001C153.617 125.721 153.94 126.689 154.585 128.086C156.036 131.043 158.724 132.816 167.055 136.471C182.427 143.083 189.092 147.436 193.124 153.671C197.692 160.659 198.714 171.624 195.65 179.848C192.21 188.824 183.825 194.898 171.839 196.886C168.076 197.531 159.476 197.424 155.445 196.725C146.845 195.113 138.621 190.813 133.569 185.276C131.58 183.126 127.764 177.375 127.979 176.999L130.021 175.709L138.084 171.033L144.157 167.485L145.555 169.366C147.329 172.161 151.306 175.924 153.617 177.214C160.605 180.815 169.957 180.331 174.58 176.139C176.569 174.311 177.429 172.376 177.429 169.689C177.429 167.216 177.052 166.088 175.816 164.206C174.096 161.841 170.656 159.906 160.981 155.606C149.855 150.876 145.125 147.866 140.717 143.244C138.191 140.449 135.88 136.095 134.805 132.494C133.999 129.376 133.73 121.744 134.482 118.68C136.794 107.93 144.91 100.405 156.52 98.2551C160.282 97.5026 169.151 97.8251 172.86 98.7926L172.752 98.9001Z" fill="white"/>
</g>
<defs>
<clipPath id="clip0_470_2681">
<rect width="215" height="215" fill="white"/>
</clipPath>
</defs>
</svg>
